<?xml version="1.0" encoding="UTF-8" standalone="no"?>
<!DOCTYPE svg PUBLIC "-//W3C//DTD SVG 1.1//EN"
 "http://www.w3.org/Graphics/SVG/1.1/DTD/svg11.dtd">
<!-- Generated by graphviz version 2.40.1 (20161225.0304)
 -->
<!-- Title: G Pages: 1 -->
<svg width="422pt" height="123pt"
 viewBox="0.00 0.00 422.00 123.00" xmlns="http://www.w3.org/2000/svg" xmlns:xlink="http://www.w3.org/1999/xlink">
<g id="graph0" class="graph" transform="scale(1 1) rotate(0) translate(4 119)">
<title>G</title>
<polygon fill="#ffffff" stroke="transparent" points="-4,4 -4,-119 418,-119 418,4 -4,4"/>
<!-- 0 -->
<g id="node1" class="node">
<title>0</title>
<ellipse fill="#ffffff" stroke="#000000" cx="27" cy="-18" rx="27" ry="18"/>
<text text-anchor="middle" x="27" y="-13.8" font-family="Times,serif" font-size="14.00" fill="#000000">a</text>
</g>
<!-- 2 -->
<g id="node3" class="node">
<title>2</title>
<ellipse fill="#ffffff" stroke="#000000" cx="117" cy="-42" rx="27" ry="18"/>
<text text-anchor="middle" x="117" y="-37.8" font-family="Times,serif" font-size="14.00" fill="#000000">c</text>
</g>
<!-- 0&#45;&gt;2 -->
<g id="edge1" class="edge">
<title>0&#45;&gt;2</title>
<path fill="none" stroke="#000000" d="M52.07,-24.6853C61.3542,-27.1611 72.0567,-30.0151 82.0602,-32.6827"/>
<polygon fill="#000000" stroke="#000000" points="81.1881,-36.0724 91.7523,-35.2673 82.9918,-29.3088 81.1881,-36.0724"/>
</g>
<!-- 1 -->
<g id="node2" class="node">
<title>1</title>
<ellipse fill="#ffffff" stroke="#000000" cx="207" cy="-42" rx="27" ry="18"/>
<text text-anchor="middle" x="207" y="-37.8" font-family="Times,serif" font-size="14.00" fill="#000000">b</text>
</g>
<!-- 3 -->
<g id="node4" class="node">
<title>3</title>
<ellipse fill="#ffffff" stroke="#000000" cx="297" cy="-97" rx="27" ry="18"/>
<text text-anchor="middle" x="297" y="-92.8" font-family="Times,serif" font-size="14.00" fill="#000000">d</text>
</g>
<!-- 1&#45;&gt;3 -->
<g id="edge2" class="edge">
<title>1&#45;&gt;3</title>
<path fill="none" stroke="#000000" d="M226.9739,-54.2063C239.092,-61.6118 254.7603,-71.1868 268.2024,-79.4015"/>
<polygon fill="#000000" stroke="#000000" points="266.724,-82.5998 277.0819,-84.8278 270.3742,-76.6268 266.724,-82.5998"/>
</g>
<!-- 4 -->
<g id="node5" class="node">
<title>4</title>
<ellipse fill="#ffffff" stroke="#000000" cx="387" cy="-42" rx="27" ry="18"/>
<text text-anchor="middle" x="387" y="-37.8" font-family="Times,serif" font-size="14.00" fill="#000000">e</text>
</g>
<!-- 1&#45;&gt;4 -->
<g id="edge3" class="edge">
<title>1&#45;&gt;4</title>
<path fill="none" stroke="#000000" d="M233.1735,-37.0719C264.1009,-34.8711 315.7457,-34.6642 350.5692,-36.4511"/>
<polygon fill="#000000" stroke="#000000" points="350.6017,-39.9594 360.7949,-37.0697 351.0245,-32.9721 350.6017,-39.9594"/>
</g>
<!-- 2&#45;&gt;1 -->
<g id="edge4" class="edge">
<title>2&#45;&gt;1</title>
<path fill="none" stroke="#000000" d="M144.003,-42C152.0277,-42 160.9665,-42 169.5309,-42"/>
<polygon fill="#000000" stroke="#000000" points="169.7051,-45.5001 179.705,-42 169.705,-38.5001 169.7051,-45.5001"/>
</g>
<!-- 2&#45;&gt;3 -->
<g id="edge5" class="edge">
<title>2&#45;&gt;3</title>
<path fill="none" stroke="#000000" d="M139.0942,-52.5636C151.0197,-57.9845 166.106,-64.3973 180,-69 206.5969,-77.8108 237.4469,-85.0763 260.7892,-89.9965"/>
<polygon fill="#000000" stroke="#000000" points="260.1197,-93.432 270.6205,-92.0242 261.5337,-86.5763 260.1197,-93.432"/>
</g>
<!-- 3&#45;&gt;4 -->
<g id="edge6" class="edge">
<title>3&#45;&gt;4</title>
<path fill="none" stroke="#000000" d="M316.9739,-84.7937C329.092,-77.3882 344.7603,-67.8132 358.2024,-59.5985"/>
<polygon fill="#000000" stroke="#000000" points="360.3742,-62.3732 367.0819,-54.1722 356.724,-56.4002 360.3742,-62.3732"/>
</g>
<!-- 4&#45;&gt;0 -->
<g id="edge7" class="edge">
<title>4&#45;&gt;0</title>
<path fill="none" stroke="#000000" d="M361.4642,-36.0828C331.2349,-29.4072 279.2762,-18.9643 234,-15 170.2439,-9.4176 153.9819,-13.4775 90,-15 81.5949,-15.2 72.5644,-15.5499 64.0398,-15.9418"/>
<polygon fill="#000000" stroke="#000000" points="63.7859,-12.4499 53.9684,-16.4334 64.1272,-19.4416 63.7859,-12.4499"/>
</g>
<!-- 4&#45;&gt;1 -->
<g id="edge8" class="edge">
<title>4&#45;&gt;1</title>
<path fill="none" stroke="#000000" d="M360.7949,-46.9303C329.8534,-49.1298 278.2073,-49.3354 243.3953,-47.5471"/>
<polygon fill="#000000" stroke="#000000" points="243.3669,-44.039 233.1735,-46.9281 242.9437,-51.0262 243.3669,-44.039"/>
</g>
</g>
</svg>
