<?xml version="1.0" encoding="UTF-8" standalone="no"?>
<!DOCTYPE svg PUBLIC "-//W3C//DTD SVG 1.1//EN"
 "http://www.w3.org/Graphics/SVG/1.1/DTD/svg11.dtd">
<!-- Generated by graphviz version 2.40.1 (20161225.0304)
 -->
<!-- Title: G Pages: 1 -->
<svg width="422pt" height="109pt"
 viewBox="0.00 0.00 422.00 109.00" xmlns="http://www.w3.org/2000/svg" xmlns:xlink="http://www.w3.org/1999/xlink">
<g id="graph0" class="graph" transform="scale(1 1) rotate(0) translate(4 105)">
<title>G</title>
<polygon fill="#ffffff" stroke="transparent" points="-4,4 -4,-105 418,-105 418,4 -4,4"/>
<!-- 0 -->
<g id="node1" class="node">
<title>0</title>
<ellipse fill="#ffffff" stroke="#000000" cx="27" cy="-18" rx="27" ry="18"/>
<text text-anchor="middle" x="27" y="-13.8" font-family="Times,serif" font-size="14.00" fill="#000000">a</text>
</g>
<!-- 2 -->
<g id="node3" class="node">
<title>2</title>
<ellipse fill="#ffffff" stroke="#000000" cx="117" cy="-41" rx="27" ry="18"/>
<text text-anchor="middle" x="117" y="-36.8" font-family="Times,serif" font-size="14.00" fill="#000000">c</text>
</g>
<!-- 0&#45;&#45;2 -->
<g id="edge1" class="edge">
<title>0&#45;&#45;2</title>
<path fill="none" stroke="#000000" d="M52.5497,-24.5294C64.8142,-27.6636 79.4658,-31.4079 91.698,-34.5339"/>
</g>
<!-- 1 -->
<g id="node2" class="node">
<title>1</title>
<ellipse fill="#ffffff" stroke="#000000" cx="207" cy="-41" rx="27" ry="18"/>
<text text-anchor="middle" x="207" y="-36.8" font-family="Times,serif" font-size="14.00" fill="#000000">b</text>
</g>
<!-- 3 -->
<g id="node4" class="node">
<title>3</title>
<ellipse fill="#ffffff" stroke="#000000" cx="297" cy="-83" rx="27" ry="18"/>
<text text-anchor="middle" x="297" y="-78.8" font-family="Times,serif" font-size="14.00" fill="#000000">d</text>
</g>
<!-- 1&#45;&#45;3 -->
<g id="edge2" class="edge">
<title>1&#45;&#45;3</title>
<path fill="none" stroke="#000000" d="M229.2472,-51.382C243.0935,-57.8436 260.84,-66.1253 274.6968,-72.5918"/>
</g>
<!-- 4 -->
<g id="node5" class="node">
<title>4</title>
<ellipse fill="#ffffff" stroke="#000000" cx="387" cy="-37" rx="27" ry="18"/>
<text text-anchor="middle" x="387" y="-32.8" font-family="Times,serif" font-size="14.00" fill="#000000">e</text>
</g>
<!-- 1&#45;&#45;4 -->
<g id="edge3" class="edge">
<title>1&#45;&#45;4</title>
<path fill="none" stroke="#000000" d="M234.3381,-40.3925C268.3667,-39.6363 326.1212,-38.3529 359.9944,-37.6001"/>
</g>
<!-- 2&#45;&#45;1 -->
<g id="edge4" class="edge">
<title>2&#45;&#45;1</title>
<path fill="none" stroke="#000000" d="M144.003,-41C155.2905,-41 168.3867,-41 179.705,-41"/>
</g>
<!-- 2&#45;&#45;3 -->
<g id="edge5" class="edge">
<title>2&#45;&#45;3</title>
<path fill="none" stroke="#000000" d="M138.6215,-52.0365C150.5383,-57.6623 165.7642,-64.1183 180,-68 210.0313,-76.1887 245.6475,-79.9414 269.6293,-81.639"/>
</g>
<!-- 3&#45;&#45;4 -->
<g id="edge6" class="edge">
<title>3&#45;&#45;4</title>
<path fill="none" stroke="#000000" d="M318.7865,-71.8647C332.9367,-64.6323 351.304,-55.2446 365.4141,-48.0328"/>
</g>
<!-- 4&#45;&#45;0 -->
<g id="edge7" class="edge">
<title>4&#45;&#45;0</title>
<path fill="none" stroke="#000000" d="M360.8733,-31.8566C330.5213,-26.165 278.8669,-17.3535 234,-14 170.178,-9.2297 153.9678,-11.9713 90,-14 78.1697,-14.3752 65.1085,-15.1457 53.9606,-15.9113"/>
</g>
</g>
</svg>
