<?xml version="1.0" encoding="UTF-8" standalone="no"?>
<!DOCTYPE svg PUBLIC "-//W3C//DTD SVG 1.1//EN"
 "http://www.w3.org/Graphics/SVG/1.1/DTD/svg11.dtd">
<!-- Generated by graphviz version 2.40.1 (20161225.0304)
 -->
<!-- Title: G Pages: 1 -->
<svg width="450pt" height="174pt"
 viewBox="0.00 0.00 450.00 174.00" xmlns="http://www.w3.org/2000/svg" xmlns:xlink="http://www.w3.org/1999/xlink">
<g id="graph0" class="graph" transform="scale(1 1) rotate(0) translate(4 170)">
<title>G</title>
<polygon fill="#ffffff" stroke="transparent" points="-4,4 -4,-170 446,-170 446,4 -4,4"/>
<!-- 0 -->
<g id="node1" class="node">
<title>0</title>
<ellipse fill="#ffffff" stroke="#000000" cx="27" cy="-18" rx="27" ry="18"/>
<text text-anchor="middle" x="27" y="-13.8" font-family="Times,serif" font-size="14.00" fill="#000000">a</text>
</g>
<!-- 2 -->
<g id="node3" class="node">
<title>2</title>
<ellipse fill="#ffffff" stroke="#000000" cx="124" cy="-98" rx="27" ry="18"/>
<text text-anchor="middle" x="124" y="-93.8" font-family="Times,serif" font-size="14.00" fill="#000000">c</text>
</g>
<!-- 0&#45;&gt;2 -->
<g id="edge1" class="edge">
<title>0&#45;&gt;2</title>
<path fill="none" stroke="#000000" d="M44.3417,-32.3024C59.5147,-44.8162 81.7433,-63.1491 98.8661,-77.271"/>
<polygon fill="#000000" stroke="#000000" points="96.8668,-80.1589 106.8085,-83.8214 101.3207,-74.7586 96.8668,-80.1589"/>
<text text-anchor="middle" x="75.5" y="-63.8" font-family="Times,serif" font-size="14.00" fill="#000000">1</text>
</g>
<!-- 1 -->
<g id="node2" class="node">
<title>1</title>
<ellipse fill="#ffffff" stroke="#000000" cx="221" cy="-98" rx="27" ry="18"/>
<text text-anchor="middle" x="221" y="-93.8" font-family="Times,serif" font-size="14.00" fill="#000000">b</text>
</g>
<!-- 3 -->
<g id="node4" class="node">
<title>3</title>
<ellipse fill="#ffffff" stroke="#000000" cx="318" cy="-148" rx="27" ry="18"/>
<text text-anchor="middle" x="318" y="-143.8" font-family="Times,serif" font-size="14.00" fill="#000000">d</text>
</g>
<!-- 1&#45;&gt;3 -->
<g id="edge2" class="edge">
<title>1&#45;&gt;3</title>
<path fill="none" stroke="#000000" d="M242.5274,-109.0966C255.7136,-115.8936 272.8,-124.7011 287.3799,-132.2164"/>
<polygon fill="#000000" stroke="#000000" points="286.0405,-135.4636 296.5327,-136.9344 289.2477,-129.2416 286.0405,-135.4636"/>
<text text-anchor="middle" x="269.5" y="-126.8" font-family="Times,serif" font-size="14.00" fill="#000000">1</text>
</g>
<!-- 4 -->
<g id="node5" class="node">
<title>4</title>
<ellipse fill="#ffffff" stroke="#000000" cx="415" cy="-73" rx="27" ry="18"/>
<text text-anchor="middle" x="415" y="-68.8" font-family="Times,serif" font-size="14.00" fill="#000000">e</text>
</g>
<!-- 1&#45;&gt;4 -->
<g id="edge3" class="edge">
<title>1&#45;&gt;4</title>
<path fill="none" stroke="#000000" d="M239.9304,-85.1152C253.4874,-76.6985 272.5379,-66.4692 291,-62 320.5391,-54.8493 355.0424,-58.8739 380.1427,-63.9538"/>
<polygon fill="#000000" stroke="#000000" points="379.4288,-67.3803 389.9444,-66.0872 380.9176,-60.5405 379.4288,-67.3803"/>
<text text-anchor="middle" x="318" y="-64.8" font-family="Times,serif" font-size="14.00" fill="#000000">2</text>
</g>
<!-- 2&#45;&gt;1 -->
<g id="edge4" class="edge">
<title>2&#45;&gt;1</title>
<path fill="none" stroke="#000000" d="M151.0199,-98C161.1304,-98 172.8016,-98 183.6794,-98"/>
<polygon fill="#000000" stroke="#000000" points="183.7886,-101.5001 193.7886,-98 183.7885,-94.5001 183.7886,-101.5001"/>
<text text-anchor="middle" x="172.5" y="-100.8" font-family="Times,serif" font-size="14.00" fill="#000000">5</text>
</g>
<!-- 2&#45;&gt;3 -->
<g id="edge5" class="edge">
<title>2&#45;&gt;3</title>
<path fill="none" stroke="#000000" d="M147.2952,-107.4979C154.2572,-110.2877 161.9207,-113.3108 169,-116 210.724,-131.8496 222.0362,-134.3007 266,-142 270.8366,-142.847 275.9479,-143.6038 281.0026,-144.2706"/>
<polygon fill="#000000" stroke="#000000" points="280.8422,-147.7769 291.1924,-145.5133 281.6896,-140.8284 280.8422,-147.7769"/>
<text text-anchor="middle" x="221" y="-140.8" font-family="Times,serif" font-size="14.00" fill="#000000">10</text>
</g>
<!-- 3&#45;&gt;4 -->
<g id="edge6" class="edge">
<title>3&#45;&gt;4</title>
<path fill="none" stroke="#000000" d="M337.6199,-135.153C347.513,-128.4916 359.5895,-120.0766 370,-112 377.0452,-106.5343 384.4511,-100.3246 391.175,-94.4926"/>
<polygon fill="#000000" stroke="#000000" points="393.4906,-97.1171 398.6925,-87.8872 388.8701,-91.8587 393.4906,-97.1171"/>
<text text-anchor="middle" x="366.5" y="-119.8" font-family="Times,serif" font-size="14.00" fill="#000000">4</text>
</g>
<!-- 4&#45;&gt;0 -->
<g id="edge7" class="edge">
<title>4&#45;&gt;0</title>
<path fill="none" stroke="#000000" d="M403.2633,-56.5327C386.8041,-35.5586 354.7303,-2 318,-2 124,-2 124,-2 124,-2 103.3586,-2 80.5719,-5.5708 62.2734,-9.3386"/>
<polygon fill="#000000" stroke="#000000" points="61.3719,-5.9526 52.3406,-11.4922 62.8552,-12.7937 61.3719,-5.9526"/>
<text text-anchor="middle" x="221" y="-4.8" font-family="Times,serif" font-size="14.00" fill="#000000">3</text>
</g>
<!-- 4&#45;&gt;1 -->
<g id="edge8" class="edge">
<title>4&#45;&gt;1</title>
<path fill="none" stroke="#000000" d="M388.4422,-76.4224C354.584,-80.7856 295.8742,-88.3513 257.7404,-93.2654"/>
<polygon fill="#000000" stroke="#000000" points="257.0387,-89.8268 247.5681,-94.5763 257.9334,-96.7694 257.0387,-89.8268"/>
<text text-anchor="middle" x="318" y="-91.8" font-family="Times,serif" font-size="14.00" fill="#000000">7</text>
</g>
</g>
</svg>
